<svg xmlns="http://www.w3.org/2000/svg" viewBox="0 0 111.48 105.62"><defs></defs><g id="Ebene_2" data-name="Ebene 2"><g id="Ebene_1-2" data-name="Ebene 1"><path class="cls-1" d="M111.48,29.86c-5.5-3.85-9.35-4.71-9.35-4.71-3.6-.8-5.95-.32-10.25-2a25.88,25.88,0,0,1-6.11-3.42c-5.5-4.17-5.57-8.15-9-12.22C70.38-.09,58.94,0,57.72,0,46.07.23,38.8,8.45,37.59,9.87c0,0-13.26-4.45-24.49,2.62C11.4,13.57,1.71,19.82.2,31.8c-1.39,11,4.68,21.65,14,26.79,12,6.61,24.2,1.16,25.53.54a30.65,30.65,0,0,0,11,14.56,31.09,31.09,0,0,0,21.22,5.39,54.9,54.9,0,0,0,2.15,10.79c2.17,5.89,7.16,9.13,9.71,10.78,1.94,1.26,11.49,7.46,21.72,3.86a20.26,20.26,0,0,0,6-3.33Z"/></g></g></svg>